<svg width="16" height="16" viewBox="0 0 16 16" fill="none" xmlns="http://www.w3.org/2000/svg">
<path d="M7.99777 7.42913C9.57572 7.42913 10.8549 6.14994 10.8549 4.57199C10.8549 2.99403 9.57572 1.71484 7.99777 1.71484C6.41981 1.71484 5.14062 2.99403 5.14062 4.57199C5.14062 6.14994 6.41981 7.42913 7.99777 7.42913Z" fill="#F9A886"/>
<path d="M9.06321 11.8412L8.00036 8.66406L6.9375 11.8412V11.8469L8.00036 12.9098L9.06321 11.8469V11.8412Z" fill="#F9A886"/>
<path d="M9.1423 8H8.9823L10.2452 11.7829C10.2864 11.8878 10.2964 12.0023 10.2741 12.1128C10.2518 12.2233 10.1981 12.325 10.1194 12.4057L8.23944 14.2857H13.1423C13.2937 14.2853 13.4388 14.2249 13.5459 14.1178C13.6529 14.0108 13.7133 13.8657 13.7137 13.7143V12.5714C13.7122 11.3595 13.2301 10.1976 12.3731 9.34061C11.5161 8.48363 10.3543 8.00151 9.1423 8ZM5.87944 12.4057C5.80078 12.325 5.74708 12.2233 5.72478 12.1128C5.70248 12.0023 5.71253 11.8878 5.75373 11.7829L7.01658 8H6.85659C5.64463 8.00151 4.48275 8.48363 3.62577 9.34061C2.76879 10.1976 2.28667 11.3595 2.28516 12.5714V13.7143C2.28561 13.8657 2.34596 14.0108 2.45302 14.1178C2.56009 14.2249 2.70517 14.2853 2.85658 14.2857H7.76516C7.76516 14.2857 7.39944 13.9257 5.87944 12.4057Z" fill="#F9A886"/>
</svg>
