<svg width="16" height="16" viewBox="0 0 16 16" fill="none" xmlns="http://www.w3.org/2000/svg">
<path fill-rule="evenodd" clip-rule="evenodd" d="M14 7.39839V10.7273C14 12.7917 14 13.8239 13.5106 14.2749C13.2772 14.49 12.9826 14.6252 12.6687 14.6611C12.0107 14.7364 11.2422 14.0567 9.70523 12.6973C9.02585 12.0964 8.68617 11.7959 8.29315 11.7168C8.09962 11.6778 7.90038 11.6778 7.70685 11.7168C7.31383 11.7959 6.97415 12.0964 6.29477 12.6973C4.75782 14.0567 3.98935 14.7364 3.33128 14.6611C3.01743 14.6252 2.72281 14.49 2.4894 14.2749C2 13.8239 2 12.7917 2 10.7273V7.39839C2 4.53931 2 3.10978 2.87868 2.22157C3.75736 1.33337 5.17157 1.33337 8 1.33337C10.8284 1.33337 12.2426 1.33337 13.1213 2.22157C14 3.10978 14 4.53931 14 7.39839ZM5.5 4.00004C5.5 3.7239 5.72386 3.50004 6 3.50004H10C10.2761 3.50004 10.5 3.7239 10.5 4.00004C10.5 4.27618 10.2761 4.50004 10 4.50004H6C5.72386 4.50004 5.5 4.27618 5.5 4.00004Z" fill="#F9A886"/>
</svg>
