<svg width="24" height="24" viewBox="0 0 24 24" fill="none" xmlns="http://www.w3.org/2000/svg">
<path d="M17.4872 8.90064C17.5702 8.95564 17.6652 8.98264 17.7612 8.98264C17.8432 8.98264 17.9242 8.96264 17.9982 8.92264C18.1602 8.83564 18.2612 8.66664 18.2612 8.48264V3.22531C18.2612 3.15561 18.3133 3.09683 18.3826 3.08934C19.1816 3.00134 19.9806 3.25634 20.5766 3.79034C21.1636 4.31534 21.4996 5.06834 21.4996 5.85534V16.1953C21.4996 17.6563 20.3396 18.8773 18.8576 18.9743C16.6486 19.1333 14.6766 20.0323 13.4106 20.7593C13.3165 20.814 13.2199 20.8627 13.1212 20.9056C12.9395 20.9846 12.75 20.8409 12.75 20.6427V5.22661C12.75 5.11713 12.815 5.01942 12.9096 4.96434C13.2418 4.77083 13.6257 4.56375 14.054 4.35957C14.2496 4.26632 14.4722 4.41112 14.4722 4.62781V8.48264C14.4722 8.66664 14.5732 8.83564 14.7352 8.92264C14.8972 9.01064 15.0932 9.00264 15.2472 8.90064L15.7962 8.54064C16.1422 8.30864 16.5902 8.30864 16.9402 8.54164L17.4872 8.90064Z" fill="#F26522"/>
<path d="M11.2504 20.6436C11.2504 20.8418 11.0609 20.9855 10.8791 20.9065C10.7796 20.8632 10.682 20.8139 10.587 20.7585C9.325 20.0335 7.352 19.1345 5.141 18.9755C3.66 18.8775 2.5 17.6565 2.5 16.1965V5.85653C2.5 5.06953 2.837 4.31653 3.424 3.79153C4.019 3.25753 4.821 2.99853 5.619 3.09053C7.902 3.33753 9.854 4.24553 11.09 4.96453C11.1851 5.02002 11.2504 5.11828 11.2504 5.22837V20.6436Z" fill="#F26522"/>
</svg>
