<svg width="20" height="20" viewBox="0 0 20 20" fill="none" xmlns="http://www.w3.org/2000/svg">
<path d="M3.2513 4.78038L4.19937 11.6109C4.33662 12.5997 5.18205 13.3359 6.18038 13.3359L14.5722 13.3359C15.5705 13.3359 16.416 12.5997 16.5532 11.6109L17.2645 6.4866C17.3896 5.58483 16.6891 4.78038 15.7787 4.78038L3.2513 4.78038ZM3.2513 4.78038L3.00535 2.84727C2.91968 2.17392 2.34675 1.66927 1.66797 1.66927V1.66927" stroke="white" stroke-width="1.5"/>
<path d="M7.5 17.0859C7.5 16.3956 6.94036 15.8359 6.25 15.8359C5.55964 15.8359 5 16.3956 5 17.0859C5 17.7763 5.55964 18.3359 6.25 18.3359C6.94036 18.3359 7.5 17.7763 7.5 17.0859Z" stroke="white" stroke-width="1.5"/>
<path d="M15.8359 17.0859C15.8359 16.3956 15.2763 15.8359 14.5859 15.8359C13.8956 15.8359 13.3359 16.3956 13.3359 17.0859C13.3359 17.7763 13.8956 18.3359 14.5859 18.3359C15.2763 18.3359 15.8359 17.7763 15.8359 17.0859Z" stroke="white" stroke-width="1.5"/>
<path d="M10.0859 7L10.0859 11.1667" stroke="white" stroke-linecap="round" stroke-linejoin="round"/>
<path d="M12.1667 9.08203L8 9.08203" stroke="white" stroke-linecap="round" stroke-linejoin="round"/>
</svg>
