<svg width="24" height="24" viewBox="0 0 24 24" fill="none" xmlns="http://www.w3.org/2000/svg">
<path d="M7.25827 2H16.7283C17.3783 2 17.9583 2.02003 18.4783 2.09003C21.2483 2.40003 21.9983 3.70001 21.9983 7.26001V13.58C21.9983 17.14 21.2483 18.44 18.4783 18.75C17.9583 18.82 17.3883 18.84 16.7283 18.84H7.25827C6.60827 18.84 6.02827 18.82 5.50827 18.75C2.73827 18.44 1.98828 17.14 1.98828 13.58V7.26001C1.98828 3.70001 2.73827 2.40003 5.50827 2.09003C6.02827 2.02003 6.60827 2 7.25827 2Z" stroke="#8F95B2" stroke-width="1.5" stroke-linecap="round" stroke-linejoin="round"/>
<path d="M13.5781 8.32031H17.2581" stroke="#8F95B2" stroke-width="1.5" stroke-linecap="round" stroke-linejoin="round"/>
<path d="M6.73828 14.1094H6.75827H17.2683" stroke="#8F95B2" stroke-width="1.5" stroke-linecap="round" stroke-linejoin="round"/>
<path d="M7 22H17" stroke="#8F95B2" stroke-width="1.5" stroke-linecap="round" stroke-linejoin="round"/>
<path d="M7.19373 8.30078H7.20271" stroke="#8F95B2" stroke-width="2" stroke-linecap="round" stroke-linejoin="round"/>
<path d="M10.4945 8.30078H10.5035" stroke="#8F95B2" stroke-width="2" stroke-linecap="round" stroke-linejoin="round"/>
</svg>
