<svg width="14" height="14" viewBox="0 0 14 14" fill="none" xmlns="http://www.w3.org/2000/svg">
<path d="M5.10178 2.60562C5.94622 1.09079 6.36843 0.333374 6.99967 0.333374C7.63092 0.333374 8.05313 1.09079 8.89757 2.60562L9.11603 2.99753C9.35599 3.428 9.47597 3.64323 9.66305 3.78525C9.85012 3.92726 10.0831 3.97997 10.5491 4.08541L10.9733 4.18139C12.6131 4.55241 13.433 4.73792 13.6281 5.36519C13.8231 5.99247 13.2642 6.64609 12.1463 7.95332L11.8571 8.29152C11.5394 8.663 11.3806 8.84873 11.3091 9.07852C11.2376 9.3083 11.2617 9.55612 11.3097 10.0517L11.3534 10.503C11.5224 12.2471 11.6069 13.1192 11.0962 13.5069C10.5856 13.8945 9.81789 13.5411 8.28256 12.8342L7.88535 12.6513C7.44906 12.4504 7.23091 12.3499 6.99967 12.3499C6.76844 12.3499 6.55029 12.4504 6.114 12.6513L5.71679 12.8342C4.18146 13.5411 3.41379 13.8945 2.90311 13.5069C2.39242 13.1192 2.47693 12.2471 2.64594 10.503L2.68966 10.0517C2.73769 9.55612 2.76171 9.3083 2.69025 9.07852C2.61879 8.84873 2.45996 8.663 2.14229 8.29152L1.85307 7.95332C0.735174 6.64609 0.176224 5.99247 0.371288 5.36519C0.566353 4.73792 1.38625 4.55241 3.02603 4.18139L3.45027 4.08541C3.91624 3.97997 4.14923 3.92726 4.3363 3.78525C4.52338 3.64323 4.64336 3.428 4.88332 2.99753L5.10178 2.60562Z" fill="url(#paint0_linear_16_245)"/>
<defs>
<linearGradient id="paint0_linear_16_245" x1="0.73304" y1="7.40007" x2="13.3997" y2="7.40007" gradientUnits="userSpaceOnUse">
<stop offset="0.495484" stop-color="#F3A412"/>
<stop offset="0.501047" stop-color="#E6E6E6"/>
</linearGradient>
</defs>
</svg>
