<svg width="24" height="24" viewBox="0 0 24 24" fill="none" xmlns="http://www.w3.org/2000/svg">
<path fill-rule="evenodd" clip-rule="evenodd" d="M21.4348 8.48626C21.1528 6.64426 20.0648 5.10626 18.4498 4.26726C16.8718 3.44626 15.0388 3.43526 13.4248 4.23526C12.9028 4.49326 12.4278 4.82226 12.0088 5.21526C11.4138 4.65926 10.7068 4.23026 9.94075 3.96126C8.30875 3.38226 6.62775 3.55526 5.20975 4.44726C3.73175 5.37926 2.73475 7.01726 2.54175 8.83326C2.10275 13.2703 6.01075 16.2563 9.15075 18.6543C9.73875 19.1033 10.3078 19.5373 10.8238 19.9613C11.1588 20.2403 11.5848 20.3863 12.0088 20.3863C12.2398 20.3863 12.4698 20.3433 12.6838 20.2543C12.9538 20.1523 13.1558 19.9853 13.3868 19.7933C13.8618 19.4033 14.3758 19.0063 14.9078 18.5953C18.1088 16.1213 22.0928 13.0423 21.4348 8.48626Z" fill="#C1C4D6"/>
</svg>
