<svg width="21" height="24" viewBox="0 0 21 24" fill="none" xmlns="http://www.w3.org/2000/svg">
<path d="M18.934 8.29293C18.6762 8.0338 18.2237 8.0338 17.9708 8.29293L16.7205 9.54936C16.9492 7.66224 16.3459 5.69198 14.9059 4.24485C14.6384 3.97595 14.2103 3.97595 13.9427 4.24485L12.6973 5.49642C12.9211 3.60929 12.3129 1.64391 10.8778 0.201655C10.6103 -0.0672182 10.1821 -0.0672182 9.91458 0.201655L1.86811 8.29293C1.86811 8.29293 1.86811 8.30267 1.85836 8.30267C0.661637 9.51027 0 11.1138 0 12.8201C0 14.5263 0.661637 16.1397 1.86811 17.3522L5.89622 21.4002C7.13676 22.6469 8.77135 23.2727 10.4011 23.2727C12.0308 23.2727 13.6654 22.6469 14.9059 21.4002L18.934 17.3522C21.42 14.8539 21.42 10.7912 18.934 8.29293ZM10.367 1.68791C11.8605 3.66307 11.7097 6.49376 9.91945 8.2978C9.65189 8.56671 9.65189 8.99693 9.91945 9.26584C10.187 9.53471 10.6151 9.53471 10.8827 9.26584L14.3951 5.73598C15.8886 7.71111 15.7378 10.5418 13.9476 12.3459L10.4059 15.9099L4.85025 10.3267L3.31782 8.78671L10.367 1.68791ZM6.85945 20.4371L2.83135 16.389C1.88269 15.4357 1.36215 14.1695 1.36215 12.825C1.36215 11.7103 1.72215 10.6494 2.38378 9.77915L4.05731 11.461L9.91945 17.3522C10.0459 17.4793 10.2211 17.5526 10.4011 17.5526C10.4838 17.5526 10.5665 17.5331 10.6443 17.5037C10.6443 17.5037 10.654 17.5037 10.6589 17.5037C10.7416 17.4695 10.8195 17.4206 10.8827 17.3571L14.3903 13.8321C14.4195 13.8712 14.4535 13.9152 14.4827 13.9543C14.5265 14.013 14.5654 14.0717 14.6043 14.1303C14.6578 14.2135 14.7065 14.3015 14.76 14.3895C14.7892 14.4383 14.8184 14.4873 14.8476 14.541C14.9108 14.6633 14.9692 14.7855 15.0227 14.9126C15.0421 14.9615 15.0616 15.0153 15.0811 15.0641C15.1151 15.157 15.1492 15.245 15.1784 15.3379C15.1978 15.3966 15.2124 15.4504 15.227 15.509C15.2513 15.6019 15.2756 15.6948 15.2951 15.7877C15.3097 15.8464 15.3195 15.9002 15.3292 15.9588C15.3486 16.0615 15.3632 16.1642 15.3729 16.2668C15.3778 16.3157 15.3876 16.3646 15.3924 16.4135C15.407 16.565 15.4167 16.7215 15.4167 16.8779C15.4167 17.0295 15.407 17.1762 15.3973 17.3277C15.3973 17.3424 15.3973 17.3619 15.3973 17.3815C15.2854 18.5402 14.7795 19.6158 13.9524 20.4469C12.0016 22.4074 8.82 22.4123 6.86433 20.4469L6.85945 20.4371ZM17.9756 16.389L16.7351 17.6357C16.7351 17.6357 16.7351 17.5966 16.7351 17.5771C16.7595 17.3522 16.774 17.1224 16.774 16.8926C16.774 16.8877 16.774 16.8828 16.774 16.8779C16.774 16.8779 16.774 16.8633 16.774 16.8535C16.774 16.6579 16.7643 16.4673 16.7448 16.2766C16.74 16.213 16.7303 16.1495 16.7205 16.0859C16.7059 15.9539 16.6865 15.817 16.6621 15.685C16.6475 15.6117 16.6329 15.5433 16.6184 15.4699C16.5892 15.3477 16.56 15.2255 16.5259 15.1033C16.5065 15.0348 16.4821 14.9615 16.4627 14.893C16.4237 14.7708 16.38 14.6535 16.3362 14.5361C16.3119 14.4726 16.2875 14.409 16.2584 14.3455C16.2048 14.2183 16.1416 14.0912 16.0784 13.969C16.054 13.9201 16.0297 13.8663 16.0005 13.8174C15.9129 13.6561 15.8156 13.4948 15.7135 13.3383C15.7086 13.3286 15.7037 13.3237 15.6989 13.3139C15.5919 13.1526 15.48 13.001 15.3584 12.8494L18.4135 9.77915C19.907 11.7543 19.7562 14.585 17.9659 16.389H17.9756Z" fill="#8F95B2"/>
</svg>
