<svg width="15" height="18" viewBox="0 0 15 18" fill="none" xmlns="http://www.w3.org/2000/svg">
<path fill-rule="evenodd" clip-rule="evenodd" d="M7.31111 0.669441C9.74445 0.669441 11.7261 2.65111 11.7261 5.08694L11.726 6.40077C13.2054 6.91562 14.2695 8.32395 14.2695 9.97677V13.5509C14.2695 15.6384 12.572 17.3359 10.4845 17.3359H4.11703C2.02953 17.3359 0.332031 15.6384 0.332031 13.5509V9.97677C0.332031 8.32426 1.3958 6.91615 2.8747 6.40107L2.87528 5.08694C2.88028 3.88694 3.34445 2.77944 4.18195 1.94944C5.02028 1.11861 6.12695 0.637774 7.31111 0.669441ZM10.4845 7.44177H4.11703C2.7187 7.44177 1.58203 8.57844 1.58203 9.97677V13.5509C1.58203 14.9493 2.7187 16.0859 4.11703 16.0859H10.4845C11.882 16.0859 13.0195 14.9493 13.0195 13.5509V9.97677C13.0195 8.57844 11.882 7.44177 10.4845 7.44177ZM7.30061 10.2133C7.64561 10.2133 7.92561 10.4933 7.92561 10.8383V12.6891C7.92561 13.0341 7.64561 13.3141 7.30061 13.3141C6.95561 13.3141 6.67561 13.0341 6.67561 12.6891V10.8383C6.67561 10.4933 6.95561 10.2133 7.30061 10.2133ZM7.30861 1.91944H7.29528C6.45111 1.91944 5.66028 2.24444 5.06278 2.83694C4.46111 3.43194 4.12861 4.22611 4.12528 5.07277L4.12453 6.1913H10.4754L10.4761 5.08694C10.4761 3.34027 9.05528 1.91944 7.30861 1.91944Z" fill="#696F8C"/>
</svg>
