<svg width="20" height="20" viewBox="0 0 20 20" fill="none" xmlns="http://www.w3.org/2000/svg">
<path d="M14.8927 18.2258C14.6344 18.2258 14.376 18.1591 14.1427 18.0174L10.801 16.0341C10.451 16.0258 10.101 16.0008 9.76771 15.9508C9.54271 15.9175 9.35104 15.7674 9.2677 15.5508C9.18437 15.3341 9.22604 15.1007 9.37604 14.9258C9.92604 14.2841 10.2094 13.5174 10.2094 12.7008C10.2094 10.6841 8.43437 9.04242 6.25104 9.04242C5.43437 9.04242 4.65103 9.26745 3.9927 9.70078C3.80937 9.81745 3.58437 9.83411 3.38437 9.74244C3.1927 9.65077 3.05104 9.46742 3.02604 9.25075C3.00104 9.01742 2.98438 8.78411 2.98438 8.54244C2.98438 4.40911 6.56771 1.05078 10.9677 1.05078C15.3677 1.05078 18.951 4.40911 18.951 8.54244C18.951 10.8091 17.901 12.8924 16.051 14.3174L16.3344 16.5841C16.401 17.1508 16.151 17.6841 15.676 17.9925C15.4427 18.1425 15.1677 18.2258 14.8927 18.2258ZM10.9594 14.7758C11.076 14.7674 11.1927 14.8008 11.2927 14.8675L14.7844 16.9425C14.876 17.0008 14.951 16.9758 15.001 16.9425C15.0427 16.9175 15.1094 16.8508 15.0927 16.7341L14.7677 14.1008C14.7427 13.8674 14.8427 13.6425 15.026 13.5091C16.726 12.3175 17.701 10.5008 17.701 8.52576C17.701 5.08409 14.6844 2.2841 10.9677 2.2841C7.39271 2.2841 4.45937 4.88413 4.2427 8.1508C4.8677 7.90913 5.54271 7.77579 6.24271 7.77579C9.11771 7.77579 11.451 9.97575 11.451 12.6841C11.4594 13.4174 11.2844 14.1258 10.9594 14.7758Z" fill="white"/>
<path d="M3.81745 18.9601C3.60079 18.9601 3.39245 18.9018 3.20078 18.7768C2.82578 18.5352 2.62579 18.1185 2.67579 17.6768L2.84246 16.3935C1.71746 15.4768 1.05078 14.1185 1.05078 12.6935C1.05078 11.0685 1.90079 9.5518 3.32579 8.64346C4.18412 8.08513 5.20078 7.78516 6.25911 7.78516C9.13412 7.78516 11.4674 9.98512 11.4674 12.6935C11.4674 13.7935 11.0674 14.8768 10.3341 15.7351C9.39245 16.8768 7.98412 17.5435 6.43412 17.5935L4.40078 18.8018C4.21745 18.9101 4.01745 18.9601 3.81745 18.9601ZM6.25079 9.03516C5.43412 9.03516 4.65078 9.26014 3.99245 9.69347C2.92578 10.3768 2.29245 11.4935 2.29245 12.6935C2.29245 13.8518 2.85912 14.9102 3.85912 15.5935C4.05079 15.7268 4.15078 15.9518 4.12578 16.1851L3.94245 17.6101L5.93412 16.4268C6.03412 16.3685 6.14245 16.3351 6.25079 16.3351C7.47579 16.3351 8.63412 15.8102 9.36746 14.9185C9.91746 14.2685 10.2091 13.5018 10.2091 12.6851C10.2091 10.6768 8.43412 9.03516 6.25079 9.03516Z" fill="white"/>
</svg>
