<svg width="20" height="20" viewBox="0 0 20 20" fill="none" xmlns="http://www.w3.org/2000/svg">
<path d="M9.99868 6.52712C9.92716 6.52712 9.85564 6.51254 9.78898 6.48338L5.44926 4.5739C5.26039 4.48988 5.13818 4.30379 5.13818 4.09687C5.13818 3.88995 5.26039 3.70387 5.44926 3.61985L9.78898 1.71037C9.9223 1.65204 10.0751 1.65204 10.2084 1.71037L14.5481 3.61985C14.737 3.70387 14.8592 3.88995 14.8592 4.09687C14.8592 4.30379 14.737 4.48988 14.5481 4.5739L10.2084 6.48338C10.1417 6.51254 10.0702 6.52712 9.99868 6.52712Z" fill="#101840"/>
<path d="M10.6277 7.43678C10.4257 7.52496 10.2153 7.5687 9.99864 7.5687C9.782 7.5687 9.57161 7.52496 9.37233 7.43817L6.52686 6.18555V6.66326C6.52686 7.08682 6.74835 7.48538 7.10456 7.70133C8.10513 8.30889 9.05223 8.61232 9.99864 8.61232C10.945 8.61232 11.8921 8.30819 12.8927 7.70133C13.2489 7.48538 13.4704 7.08752 13.4704 6.66326V6.18555L10.6277 7.43678Z" fill="#101840"/>
<path d="M17.1159 4.44617H16.2133C16.1022 5.0572 15.6994 5.57797 15.1231 5.83488H16.9423V13.4728H3.05522V5.83488H4.87443C4.29811 5.57797 3.89539 5.0572 3.78429 4.44617H2.88163C2.21505 4.44617 1.6665 4.99471 1.6665 5.66129V15.0351C1.6665 15.7017 2.21505 16.2502 2.88163 16.2502H8.2004C8.11707 16.5974 7.90182 17.1598 7.32551 17.7431C7.22135 17.8403 7.19358 17.9861 7.24913 18.118C7.30468 18.25 7.42966 18.3333 7.56853 18.3333H12.429C12.5679 18.3333 12.6929 18.25 12.7484 18.118C12.804 17.9861 12.7762 17.8403 12.672 17.7431C12.0957 17.1668 11.8735 16.5974 11.7902 16.2502H17.1159C17.7825 16.2502 18.3311 15.7017 18.3311 15.0351V5.66129C18.3311 4.99471 17.7825 4.44617 17.1159 4.44617Z" fill="#101840"/>
</svg>
