<svg width="18" height="16" viewBox="0 0 18 16" fill="none" xmlns="http://www.w3.org/2000/svg">
<path fill-rule="evenodd" clip-rule="evenodd" d="M5.04492 14.2513C4.4773 14.0902 3.86572 13.9697 3.22851 13.9242C1.90853 13.8282 0.835938 12.7637 0.835938 11.4014V2.7832C0.835938 1.25814 2.16772 0.102543 3.66512 0.265301C5.62842 0.481776 7.30685 1.2793 8.3066 1.85873C8.52635 1.98568 8.77252 2.04428 9.01627 2.03451C9.22335 2.02637 9.42885 1.96778 9.61602 1.85873C10.615 1.2793 12.2934 0.481776 14.2568 0.265301C15.7534 0.102543 17.0859 1.25814 17.0859 2.7832V11.4014C17.0859 12.7637 16.0134 13.8282 14.6934 13.9242C13.399 14.0169 12.2113 14.4173 11.2807 14.8437C10.8839 15.0261 10.534 15.2132 10.2427 15.3825C9.4476 15.8431 8.47427 15.8431 7.67919 15.3825C7.04036 15.0114 6.12118 14.5573 5.04492 14.2513ZM8.33594 3.20801C8.10885 3.15104 7.88794 3.0599 7.67919 2.93945C7.19177 2.65625 6.54028 2.32585 5.77938 2.04916C5.10311 1.80176 4.34017 1.59831 3.52921 1.50879C2.75325 1.42416 2.08594 2.02148 2.08594 2.7832V11.4014C2.08594 11.7611 2.23853 12.0882 2.48999 12.321C2.70484 12.5212 2.9921 12.653 3.31844 12.6774C5.43189 12.8288 7.24994 13.6882 8.30585 14.3002C8.31602 14.3067 8.32577 14.3115 8.33594 14.3164V3.20801ZM9.58594 14.3164C9.5961 14.3115 9.60585 14.3067 9.61602 14.3002C10.2894 13.9095 11.2725 13.418 12.4449 13.0762C13.1109 12.8809 13.8377 12.7327 14.6043 12.6774C15.3102 12.6253 15.8359 12.0687 15.8359 11.4014V2.7832C15.8359 2.02148 15.1678 1.42416 14.3927 1.50879C12.6694 1.69759 11.1635 2.4056 10.2427 2.94108C10.0339 3.06153 9.81302 3.15104 9.58594 3.20801V14.3164Z" fill="#3366FF"/>
</svg>
