<svg width="15" height="16" viewBox="0 0 15 16" fill="none" xmlns="http://www.w3.org/2000/svg">
<path fill-rule="evenodd" clip-rule="evenodd" d="M8.91101 15.2558C8.75478 15.0995 8.66702 14.8876 8.66702 14.6666C8.66702 14.4456 8.75478 14.2337 8.91101 14.0774L11.6552 11.3333H7.0002C5.23203 11.3333 3.53637 10.6309 2.28611 9.38068C1.03586 8.13043 0.333532 6.43468 0.333532 4.6666V1.33326C0.333532 1.11226 0.421282 0.900263 0.577616 0.744012C0.733866 0.587762 0.945866 0.499928 1.16687 0.499928C1.38787 0.499928 1.59978 0.587762 1.75611 0.744012C1.91236 0.900263 2.0002 1.11226 2.0002 1.33326V4.6666C2.0002 5.99268 2.52695 7.26443 3.46461 8.2021C4.40228 9.13985 5.67412 9.6666 7.0002 9.6666H11.6552L8.91101 6.92243C8.75921 6.76526 8.67522 6.55476 8.67712 6.33626C8.67901 6.11776 8.76665 5.90876 8.92116 5.75426C9.07567 5.59976 9.28467 5.5121 9.50317 5.51018C9.72167 5.50826 9.93217 5.59226 10.0893 5.7441L14.256 9.91076C14.4122 10.067 14.5 10.279 14.5 10.4999C14.5 10.7209 14.4122 10.9328 14.256 11.0891L10.0893 15.2558C9.93307 15.412 9.72114 15.4998 9.50017 15.4998C9.27921 15.4998 9.06728 15.412 8.91101 15.2558Z" fill="#696F8C"/>
</svg>
