<svg width="25" height="24" viewBox="0 0 25 24" fill="none" xmlns="http://www.w3.org/2000/svg">
<path fill-rule="evenodd" clip-rule="evenodd" d="M19.6848 11.7852C20.099 11.7852 20.4348 12.121 20.4348 12.5352V13.6019C20.4348 15.7834 18.6663 17.5519 16.4848 17.5519H8.69543L10.6151 19.4716C10.908 19.7645 10.908 20.2393 10.6151 20.5322C10.3222 20.8251 9.84733 20.8251 9.55444 20.5322L6.35444 17.3322C6.06154 17.0393 6.06154 16.5645 6.35444 16.2716L9.55444 13.0716C9.84733 12.7787 10.3222 12.7787 10.6151 13.0716C10.908 13.3645 10.908 13.8393 10.6151 14.1322L8.69543 16.0519H16.4848C17.8379 16.0519 18.9348 14.955 18.9348 13.6019V12.5352C18.9348 12.121 19.2706 11.7852 19.6848 11.7852Z" fill="#101840"/>
<path fill-rule="evenodd" clip-rule="evenodd" d="M14.8861 3.46967C15.1789 3.17678 15.6538 3.17678 15.9467 3.46967L19.1467 6.66967C19.4396 6.96256 19.4396 7.43744 19.1467 7.73033L15.9467 10.9303C15.6538 11.2232 15.1789 11.2232 14.8861 10.9303C14.5932 10.6374 14.5932 10.1626 14.8861 9.86967L16.8057 7.95H9.01641C7.66332 7.95 6.56641 9.0469 6.56641 10.4V11.4667C6.56641 11.8809 6.23063 12.2167 5.81641 12.2167C5.4022 12.2167 5.06641 11.8809 5.06641 11.4667V10.4C5.06641 8.21848 6.83489 6.45 9.01641 6.45H16.8057L14.8861 4.53033C14.5932 4.23744 14.5932 3.76256 14.8861 3.46967Z" fill="#101840"/>
</svg>
