<svg width="14" height="15" viewBox="0 0 14 15" fill="none" xmlns="http://www.w3.org/2000/svg">
<path d="M5.33918 3.65485C6.07806 2.32937 6.4475 1.66663 6.99984 1.66663C7.55217 1.66663 7.92161 2.32937 8.66049 3.65484L8.85165 3.99776C9.06161 4.37442 9.1666 4.56275 9.33029 4.68701C9.49398 4.81128 9.69784 4.8574 10.1056 4.94965L10.4768 5.03364C11.9116 5.35828 12.629 5.5206 12.7997 6.06947C12.9704 6.61833 12.4813 7.19025 11.5031 8.33408L11.2501 8.63C10.9721 8.95505 10.8331 9.11757 10.7706 9.31863C10.7081 9.51969 10.7291 9.73652 10.7711 10.1702L10.8094 10.565C10.9572 12.0911 11.0312 12.8542 10.5843 13.1934C10.1375 13.5326 9.46578 13.2234 8.12236 12.6048L7.7748 12.4448C7.39305 12.269 7.20217 12.1811 6.99984 12.1811C6.79751 12.1811 6.60663 12.269 6.22487 12.4448L5.87731 12.6048C4.5339 13.2234 3.86219 13.5326 3.41534 13.1934C2.96849 12.8542 3.04243 12.0911 3.19032 10.565L3.22858 10.1702C3.2706 9.73652 3.29161 9.51969 3.22909 9.31863C3.16657 9.11757 3.02759 8.95505 2.74962 8.63001L2.49656 8.33408C1.5184 7.19025 1.02932 6.61833 1.2 6.06947C1.37068 5.5206 2.08809 5.35828 3.5229 5.03364L3.8941 4.94965C4.30183 4.8574 4.5057 4.81128 4.66939 4.68701C4.83308 4.56275 4.93806 4.37442 5.14803 3.99776L5.33918 3.65485Z" fill="#C1C4D6"/>
</svg>
