<svg width="14" height="14" viewBox="0 0 14 14" fill="none" xmlns="http://www.w3.org/2000/svg">
<path d="M5.10227 2.60562C5.94671 1.09079 6.36892 0.333374 7.00016 0.333374C7.6314 0.333374 8.05362 1.09079 8.89805 2.60562L9.11652 2.99753C9.35648 3.428 9.47646 3.64323 9.66353 3.78525C9.85061 3.92726 10.0836 3.97997 10.5496 4.08541L10.9738 4.18139C12.6136 4.55241 13.4335 4.73792 13.6285 5.36519C13.8236 5.99247 13.2647 6.64609 12.1468 7.95332L11.8576 8.29152C11.5399 8.663 11.381 8.84873 11.3096 9.07852C11.2381 9.3083 11.2621 9.55612 11.3102 10.0517L11.3539 10.503C11.5229 12.2471 11.6074 13.1192 11.0967 13.5069C10.586 13.8945 9.81838 13.5411 8.28305 12.8342L7.88584 12.6513C7.44955 12.4504 7.2314 12.3499 7.00016 12.3499C6.76893 12.3499 6.55078 12.4504 6.11449 12.6513L5.71728 12.8342C4.18195 13.5411 3.41428 13.8945 2.90359 13.5069C2.39291 13.1192 2.47742 12.2471 2.64643 10.503L2.69015 10.0517C2.73818 9.55612 2.76219 9.3083 2.69074 9.07852C2.61928 8.84873 2.46045 8.663 2.14278 8.29152L1.85356 7.95332C0.735662 6.64609 0.176712 5.99247 0.371777 5.36519C0.566841 4.73792 1.38673 4.55241 3.02652 4.18139L3.45075 4.08541C3.91673 3.97997 4.14972 3.92726 4.33679 3.78525C4.52387 3.64323 4.64385 3.428 4.88381 2.99753L5.10227 2.60562Z" fill="#F3A412"/>
</svg>
