<svg width="20" height="20" viewBox="0 0 20 20" fill="none" xmlns="http://www.w3.org/2000/svg">
<path d="M11.8475 2.91662C10.6633 2.36145 9.33627 2.36145 8.1521 2.91662L2.57617 5.53074C1.67951 5.95112 1.44573 7.13651 1.87484 7.95579L1.87484 12.0836C1.87484 12.4288 2.15466 12.7086 2.49984 12.7086C2.84502 12.7086 3.12484 12.4288 3.12484 12.0836V8.89361L8.15218 11.2505C9.33635 11.8057 10.6634 11.8057 11.8476 11.2505L17.4235 8.63642C18.6364 8.06779 18.6364 6.09941 17.4235 5.53078L11.8475 2.91662Z" fill="#101840"/>
<path d="M4.1665 10.7625V13.8548C4.1665 14.6948 4.58609 15.4813 5.32095 15.8882C6.54459 16.5659 8.50317 17.5002 9.99984 17.5002C11.4965 17.5002 13.4551 16.5659 14.6787 15.8882C15.4136 15.4813 15.8332 14.6948 15.8332 13.8548V10.7626L12.3782 12.3823C10.8578 13.0951 9.14192 13.0951 7.62157 12.3823L4.1665 10.7625Z" fill="#101840"/>
</svg>
