<svg width="20" height="20" viewBox="0 0 20 20" fill="none" xmlns="http://www.w3.org/2000/svg">
<path d="M10.3412 9.50758C12.2763 9.50758 13.845 7.93888 13.845 6.00379C13.845 4.0687 12.2763 2.5 10.3412 2.5C8.4061 2.5 6.8374 4.0687 6.8374 6.00379C6.8374 7.93888 8.4061 9.50758 10.3412 9.50758Z" fill="#101840"/>
<path d="M11.6444 14.9175L10.341 11.0212L9.0376 14.9175V14.9245L10.341 16.2279L11.6444 14.9245V14.9175Z" fill="#101840"/>
<path d="M11.7425 10.2084H11.5462L13.0949 14.8474C13.1454 14.976 13.1577 15.1165 13.1304 15.252C13.103 15.3875 13.0372 15.5122 12.9407 15.6112L10.6353 17.9167H16.6478C16.8334 17.9162 17.0114 17.8422 17.1427 17.7109C17.274 17.5796 17.348 17.4016 17.3485 17.2159V15.8144C17.3465 14.3282 16.7553 12.9034 15.7044 11.8525C14.6534 10.8016 13.2287 10.2103 11.7425 10.2084Z" fill="#101840"/>
<path d="M7.74126 15.6112C7.64481 15.5122 7.57897 15.3875 7.55162 15.252C7.52428 15.1165 7.53659 14.976 7.58709 14.8474L9.13577 10.2084H8.93956C7.45334 10.2103 6.02856 10.8016 4.97764 11.8525C3.92673 12.9034 3.33546 14.3282 3.3335 15.8144V17.2159C3.33403 17.4016 3.40803 17.5796 3.53934 17.7109C3.67064 17.8422 3.84857 17.9162 4.03425 17.9167H10.0538C10.0538 17.9167 9.60591 17.4759 7.74126 15.6112Z" fill="#101840"/>
</svg>
