<svg width="20" height="18" viewBox="0 0 20 18" fill="none" xmlns="http://www.w3.org/2000/svg">
<path d="M0 13.1436V1.9978C0 0.899632 0.8863 0.00752202 1.9824 0.0748885C2.95877 0.134896 4.11349 0.25351 5 0.487444C6.04921 0.76431 7.29611 1.35401 8.28225 1.87546C8.5893 2.03782 8.91582 2.15044 9.25 2.21394L9.25 17.3926C8.94706 17.3258 8.65151 17.218 8.37242 17.0692C7.37293 16.5365 6.08145 15.9187 5 15.6334C4.12329 15.402 2.98428 15.2835 2.01486 15.2228C0.906046 15.1535 0 14.2546 0 13.1436Z" fill="#F26522"/>
<path d="M10.75 17.3926C11.0529 17.3258 11.3485 17.218 11.6276 17.0692C12.6271 16.5365 13.9185 15.9187 15 15.6334C15.8767 15.402 17.0157 15.2835 17.9851 15.2228C19.094 15.1535 20 14.2546 20 13.1436V1.93319C20 0.860746 19.1538 -0.0195874 18.082 0.0177469C16.9534 0.0570592 15.5469 0.174028 14.5 0.487444C13.5924 0.759163 12.5353 1.30418 11.6738 1.80275C11.3824 1.97145 11.0708 2.09535 10.75 2.17391L10.75 17.3926Z" fill="#F26522"/>
</svg>
